<svg xmlns="http://www.w3.org/2000/svg" width="1164" height="594"><path d="M66.7 16.1l4.5-10.6h6.4l-7.9 15.7V30h-6v-8.8L55.8 5.5h6.3l4.6 10.6zm32.9 2.2c0 2.4-.4 4.5-1.3 6.3-.9 1.8-2.1 3.3-3.8 4.2-1.6 1-3.5 1.5-5.6 1.5-2.1 0-3.9-.5-5.6-1.4-1.6-1-2.9-2.3-3.8-4.1-.9-1.8-1.4-3.8-1.4-6.1v-1.4c0-2.4.4-4.5 1.3-6.3.9-1.8 2.1-3.2 3.8-4.2s3.5-1.5 5.6-1.5c2.1 0 3.9.5 5.6 1.5 1.6 1 2.9 2.4 3.8 4.2.9 1.8 1.4 3.9 1.4 6.3v1zm-6-1.1c0-2.4-.4-4.3-1.2-5.5-.8-1.3-2-1.9-3.5-1.9-3 0-4.5 2.2-4.7 6.7v1.8c0 2.4.4 4.2 1.2 5.5.8 1.3 2 1.9 3.5 1.9s2.6-.6 3.4-1.9c.8-1.3 1.2-3.1 1.2-5.5v-1.1zm28.3-11.7v16c0 1.8-.4 3.4-1.2 4.7-.8 1.3-1.9 2.3-3.3 3-1.4.7-3.2 1-5.1 1-3 0-5.3-.8-7-2.3-1.7-1.5-2.6-3.7-2.6-6.4v-16h5.9v16.3c.1 2.7 1.3 4 3.7 4 1.2 0 2.1-.3 2.8-1 .6-.7.9-1.8.9-3.3v-16h5.9zm12.7 15.8h-3.2V30h-5.9V5.5h9.6c2.9 0 5.2.6 6.8 1.9s2.5 3.1 2.5 5.5c0 1.7-.3 3.1-1 4.2s-1.8 2-3.2 2.7l5.1 9.9v.3H139l-4.4-8.7zm-3.1-4.5h3.7c1.1 0 2-.3 2.5-.9.6-.6.8-1.4.8-2.5s-.3-1.9-.9-2.5c-.6-.6-1.4-.9-2.5-.9h-3.7v6.8zm31 8.7h10.3V30h-16.2V5.5h5.9v20zm32.4-7.2c0 2.4-.4 4.5-1.3 6.3-.9 1.8-2.1 3.3-3.8 4.2-1.6 1-3.5 1.5-5.6 1.5-2.1 0-3.9-.5-5.6-1.4-1.6-1-2.9-2.3-3.8-4.1-.9-1.8-1.4-3.8-1.4-6.1v-1.4c0-2.4.4-4.5 1.3-6.3.9-1.8 2.1-3.2 3.8-4.2s3.5-1.5 5.6-1.5c2.1 0 3.9.5 5.6 1.5 1.6 1 2.9 2.4 3.8 4.2.9 1.8 1.4 3.9 1.4 6.3v1zm-6-1.1c0-2.4-.4-4.3-1.2-5.5-.8-1.3-2-1.9-3.5-1.9-3 0-4.5 2.2-4.7 6.7v1.8c0 2.4.4 4.2 1.2 5.5.8 1.3 2 1.9 3.5 1.9s2.6-.6 3.4-1.9c.8-1.3 1.2-3.1 1.2-5.5v-1.1zM218 27c-.9 1-2.2 1.8-4 2.4-1.7.6-3.7.9-5.8.9-3.2 0-5.8-1-7.7-2.9-1.9-2-2.9-4.7-3.1-8.2v-2.1c0-2.4.4-4.5 1.3-6.3s2.1-3.2 3.7-4.2 3.4-1.5 5.5-1.5c3 0 5.4.7 7.1 2.1 1.7 1.4 2.7 3.5 3 6.2h-5.7c-.2-1.4-.6-2.3-1.3-2.9-.7-.6-1.6-.9-2.9-.9-1.5 0-2.6.6-3.4 1.9-.8 1.3-1.2 3-1.2 5.4v1.5c0 2.4.4 4.3 1.3 5.5.8 1.2 2.1 1.8 3.9 1.8 1.5 0 2.7-.3 3.4-1V21H208v-4.1h10V27zm24.2-8.7c0 2.4-.4 4.5-1.3 6.3-.9 1.8-2.1 3.3-3.8 4.2-1.6 1-3.5 1.5-5.6 1.5-2.1 0-3.9-.5-5.6-1.4-1.6-1-2.9-2.3-3.8-4.1-.9-1.8-1.4-3.8-1.4-6.1v-1.4c0-2.4.4-4.5 1.3-6.3.9-1.8 2.1-3.2 3.8-4.2s3.5-1.5 5.6-1.5c2.1 0 3.9.5 5.6 1.5 1.6 1 2.9 2.4 3.8 4.2.9 1.8 1.4 3.9 1.4 6.3v1zm-6-1.1c0-2.4-.4-4.3-1.2-5.5-.8-1.3-2-1.9-3.5-1.9-3 0-4.5 2.2-4.7 6.7v1.8c0 2.4.4 4.2 1.2 5.5.8 1.3 2 1.9 3.5 1.9s2.6-.6 3.4-1.9c.8-1.3 1.2-3.1 1.2-5.5v-1.1z" fill="#738199"/><path fill="#36D56C" d="M205.2 403.2c0 2.3-1.9 4.4-4.4 4.4h-1c-2.3 0-4.4-1.9-4.4-4.4v-25.8c0-2.3 1.9-4.4 4.4-4.4h1c2.3 0 4.4 1.9 4.4 4.4v25.8zm15.3 0c0 2.3-1.9 4.4-4.4 4.4h-1c-2.3 0-4.4-1.9-4.4-4.4v-25.8c0-2.3 1.9-4.4 4.4-4.4h1c2.3 0 4.4 1.9 4.4 4.4v25.8zm15.3 0c0 2.3-1.9 4.4-4.4 4.4h-1c-2.3 0-4.4-1.9-4.4-4.4v-25.8c0-2.3 1.9-4.4 4.4-4.4h1c2.3 0 4.4 1.9 4.4 4.4v25.8zm15.3 0c0 2.3-1.9 4.4-4.4 4.4h-1c-2.3 0-4.4-1.9-4.4-4.4v-25.8c0-2.3 1.9-4.4 4.4-4.4h1c2.3 0 4.4 1.9 4.4 4.4v25.8zm17.3 0c0 2.3-1.9 4.4-4.4 4.4h-1c-2.3 0-4.4-1.9-4.4-4.4v-25.8c0-2.3 1.9-4.4 4.4-4.4h1c2.3 0 4.4 1.9 4.4 4.4v25.8zm15.3 0c0 2.3-1.9 4.4-4.4 4.4h-1c-2.3 0-4.4-1.9-4.4-4.4v-25.8c0-2.3 1.9-4.4 4.4-4.4h1c2.3 0 4.4 1.9 4.4 4.4v25.8zm15.3 0c0 2.3-1.9 4.4-4.4 4.4h-1c-2.3 0-4.4-1.9-4.4-4.4v-25.8c0-2.3 1.9-4.4 4.4-4.4h1c2.3 0 4.4 1.9 4.4 4.4v25.8zm15.3 0c0 2.3-1.9 4.4-4.4 4.4h-1c-2.3 0-4.4-1.9-4.4-4.4v-25.8c0-2.3 1.9-4.4 4.4-4.4h1c2.3 0 4.4 1.9 4.4 4.4v25.8zm15.3 0c0 2.3-1.9 4.4-4.4 4.4h-1c-2.3 0-4.4-1.9-4.4-4.4v-25.8c0-2.3 1.9-4.4 4.4-4.4h1c2.3 0 4.4 1.9 4.4 4.4v25.8zm15.3 0c0 2.3-1.9 4.4-4.4 4.4h-1c-2.3 0-4.4-1.9-4.4-4.4v-25.8c0-2.3 1.9-4.4 4.4-4.4h1c2.3 0 4.4 1.9 4.4 4.4v25.8zm15.3 0c0 2.3-1.9 4.4-4.4 4.4h-1c-2.3 0-4.4-1.9-4.4-4.4v-25.8c0-2.3 1.9-4.4 4.4-4.4h1c2.3 0 4.4 1.9 4.4 4.4v25.8zm15.3 0c0 2.3-1.9 4.4-4.4 4.4h-1c-2.3 0-4.4-1.9-4.4-4.4v-25.8c0-2.3 1.9-4.4 4.4-4.4h1c2.3 0 4.4 1.9 4.4 4.4v25.8zm17.2 0c0 2.3-1.9 4.4-4.4 4.4h-1c-2.3 0-4.4-1.9-4.4-4.4v-25.8c0-2.3 1.9-4.4 4.4-4.4h1c2.3 0 4.4 1.9 4.4 4.4v25.8zm15.3 0c0 2.3-1.9 4.4-4.4 4.4h-1c-2.3 0-4.4-1.9-4.4-4.4v-25.8c0-2.3 1.9-4.4 4.4-4.4h1c2.3 0 4.4 1.9 4.4 4.4v25.8zm15.4 0c0 2.3-1.9 4.4-4.4 4.4h-1c-2.3 0-4.4-1.9-4.4-4.4v-25.8c0-2.3 1.9-4.4 4.4-4.4h1c2.3 0 4.4 1.9 4.4 4.4v25.8zm15.3 0c0 2.3-1.9 4.4-4.4 4.4h-1c-2.3 0-4.4-1.9-4.4-4.4v-25.8c0-2.3 1.9-4.4 4.4-4.4h1c2.3 0 4.4 1.9 4.4 4.4v25.8zm15.3 0c0 2.3-1.9 4.4-4.4 4.4h-1c-2.3 0-4.4-1.9-4.4-4.4v-25.8c0-2.3 1.9-4.4 4.4-4.4h1c2.3 0 4.4 1.9 4.4 4.4v25.8zm15.3 0c0 2.3-1.9 4.4-4.4 4.4h-1c-2.3 0-4.4-1.9-4.4-4.4v-25.8c0-2.3 1.9-4.4 4.4-4.4h1c2.3 0 4.4 1.9 4.4 4.4v25.8zm15.3 0c0 2.3-1.9 4.4-4.4 4.4h-1c-2.3 0-4.4-1.9-4.4-4.4v-25.8c0-2.3 1.9-4.4 4.4-4.4h1c2.3 0 4.4 1.9 4.4 4.4v25.8zm17.2 0c0 2.3-1.9 4.4-4.4 4.4h-1c-2.3 0-4.4-1.9-4.4-4.4v-25.8c0-2.3 1.9-4.4 4.4-4.4h1c2.3 0 4.4 1.9 4.4 4.4v25.8zm15.3 0c0 2.3-1.9 4.4-4.4 4.4h-1c-2.3 0-4.4-1.9-4.4-4.4v-25.8c0-2.3 1.9-4.4 4.4-4.4h1c2.3 0 4.4 1.9 4.4 4.4v25.8zm15.3 0c0 2.3-1.9 4.4-4.4 4.4h-1c-2.3 0-4.4-1.9-4.4-4.4v-25.8c0-2.3 1.9-4.4 4.4-4.4h1c2.3 0 4.4 1.9 4.4 4.4v25.8zm15.3 0c0 2.3-1.9 4.4-4.4 4.4h-1c-2.3 0-4.4-1.9-4.4-4.4v-25.8c0-2.3 1.9-4.4 4.4-4.4h1c2.3 0 4.4 1.9 4.4 4.4v25.8zm15.4 0c0 2.3-1.9 4.4-4.4 4.4h-1c-2.3 0-4.4-1.9-4.4-4.4v-25.8c0-2.3 1.9-4.4 4.4-4.4h1c2.3 0 4.4 1.9 4.4 4.4v25.8zm15.3 0c0 2.3-1.9 4.4-4.4 4.4h-1c-2.3 0-4.4-1.9-4.4-4.4v-25.8c0-2.3 1.9-4.4 4.4-4.4h1c2.3 0 4.4 1.9 4.4 4.4v25.8zm15.3 0c0 2.3-1.9 4.4-4.2 4.4h-1c-2.3 0-4.2-1.9-4.2-4.4v-25.8c0-2.3 1.9-4.4 4.2-4.4h1c2.3 0 4.2 1.9 4.2 4.4v25.8zm15.3 0c0 2.3-1.9 4.4-4.4 4.4h-1c-2.3 0-4.4-1.9-4.4-4.4v-25.8c0-2.3 1.9-4.4 4.4-4.4h1c2.3 0 4.4 1.9 4.4 4.4v25.8zm17.2 0c0 2.3-1.9 4.4-4.4 4.4h-1c-2.3 0-4.4-1.9-4.4-4.4v-25.8c0-2.3 1.9-4.4 4.4-4.4h1c2.3 0 4.4 1.9 4.4 4.4v25.8zm15.3 0c0 2.3-1.9 4.4-4.4 4.4h-1c-2.3 0-4.4-1.9-4.4-4.4v-25.8c0-2.3 1.9-4.4 4.4-4.4h1c2.3 0 4.4 1.9 4.4 4.4v25.8zm15.3 0c0 2.3-1.9 4.4-4.4 4.4h-1c-2.3 0-4.4-1.9-4.4-4.4v-25.8c0-2.3 1.9-4.4 4.4-4.4h1c2.3 0 4.4 1.9 4.4 4.4v25.8zm15.3 0c0 2.3-1.9 4.4-4.4 4.4h-1c-2.3 0-4.4-1.9-4.4-4.4v-25.8c0-2.3 1.9-4.4 4.4-4.4h1c2.3 0 4.4 1.9 4.4 4.4v25.8zm15.3 0c0 2.3-1.9 4.4-4.4 4.4h-1c-2.3 0-4.4-1.9-4.4-4.4v-25.8c0-2.3 1.9-4.4 4.4-4.4h1c2.3 0 4.4 1.9 4.4 4.4v25.8zm15.4 0c0 2.3-1.9 4.4-4.4 4.4h-1c-2.3 0-4.4-1.9-4.4-4.4v-25.8c0-2.3 1.9-4.4 4.4-4.4h1c2.3 0 4.4 1.9 4.4 4.4v25.8zm15.3 0c0 2.3-1.9 4.4-4.4 4.4h-1c-2.3 0-4.4-1.9-4.4-4.4v-25.8c0-2.3 1.9-4.4 4.4-4.4h1c2.3 0 4.4 1.9 4.4 4.4v25.8zm17.2 0c0 2.3-1.9 4.4-4.4 4.4h-1c-2.3 0-4.4-1.9-4.4-4.4v-25.8c0-2.3 1.9-4.4 4.4-4.4h1c2.3 0 4.4 1.9 4.4 4.4v25.8zm15.3 0c0 2.3-1.9 4.4-4.4 4.4h-1c-2.3 0-4.4-1.9-4.4-4.4v-25.8c0-2.3 1.9-4.4 4.4-4.4h1c2.3 0 4.4 1.9 4.4 4.4v25.8zm15.3 0c0 2.3-1.9 4.4-4.4 4.4h-1c-2.3 0-4.4-1.9-4.4-4.4v-25.8c0-2.3 1.9-4.4 4.4-4.4h1c2.3 0 4.4 1.9 4.4 4.4v25.8zm15.3 0c0 2.3-1.9 4.4-4.4 4.4h-1c-2.3 0-4.4-1.9-4.4-4.4v-25.8c0-2.3 1.9-4.4 4.4-4.4h1c2.3 0 4.4 1.9 4.4 4.4v25.8zm15.3 0c0 2.3-1.9 4.4-4.4 4.4h-1c-2.3 0-4.4-1.9-4.4-4.4v-25.8c0-2.3 1.9-4.4 4.4-4.4h1c2.3 0 4.4 1.9 4.4 4.4v25.8zm15.3 0c0 2.3-1.9 4.4-4.4 4.4h-1c-2.3 0-4.4-1.9-4.4-4.4v-25.8c0-2.3 1.9-4.4 4.4-4.4h1c2.3 0 4.4 1.9 4.4 4.4v25.8zm15.3 0c0 2.3-1.9 4.4-4.4 4.4h-1c-2.3 0-4.4-1.9-4.4-4.4v-25.8c0-2.3 1.9-4.4 4.4-4.4h1c2.3 0 4.4 1.9 4.4 4.4v25.8zm15.3 0c0 2.3-1.9 4.4-4.4 4.4h-1c-2.3 0-4.4-1.9-4.4-4.4v-25.8c0-2.3 1.9-4.4 4.4-4.4h1c2.3 0 4.4 1.9 4.4 4.4v25.8zm17.3 0c0 2.3-1.9 4.4-4.4 4.4h-1c-2.3 0-4.4-1.9-4.4-4.4v-25.8c0-2.3 1.9-4.4 4.4-4.4h1c2.3 0 4.4 1.9 4.4 4.4v25.8zm15.3 0c0 2.3-1.9 4.4-4.4 4.4h-1c-2.3 0-4.4-1.9-4.4-4.4v-25.8c0-2.3 1.9-4.4 4.4-4.4h1c2.3 0 4.4 1.9 4.4 4.4v25.8zm15.3 0c0 2.3-1.9 4.4-4.4 4.4h-1c-2.3 0-4.4-1.9-4.4-4.4v-25.8c0-2.3 1.9-4.4 4.4-4.4h1c2.3 0 4.4 1.9 4.4 4.4v25.8zm15.3 0c0 2.3-1.9 4.4-4.4 4.4h-1c-2.3 0-4.4-1.9-4.4-4.4v-25.8c0-2.3 1.9-4.4 4.4-4.4h1c2.3 0 4.4 1.9 4.4 4.4v25.8zm15.3 0c0 2.3-1.9 4.4-4.4 4.4h-1c-2.3 0-4.4-1.9-4.4-4.4v-25.8c0-2.3 1.9-4.4 4.4-4.4h1c2.3 0 4.4 1.9 4.4 4.4v25.8z"/><path fill="#DF484A" d="M936.2 403.2c0 2.3-1.9 4.4-4.4 4.4h-1c-2.3 0-4.4-1.9-4.4-4.4v-25.8c0-2.3 1.9-4.4 4.4-4.4h1c2.3 0 4.4 1.9 4.4 4.4v25.8z"/><path fill="#36D56C" d="M951.5 403.2c0 2.3-1.9 4.4-4.4 4.4h-1c-2.3 0-4.4-1.9-4.4-4.4v-25.8c0-2.3 1.9-4.4 4.4-4.4h1c2.3 0 4.4 1.9 4.4 4.4v25.8zm17.3 0c0 2.3-1.9 4.4-4.4 4.4h-1c-2.3 0-4.4-1.9-4.4-4.4v-25.8c0-2.3 1.9-4.4 4.4-4.4h1c2.3 0 4.4 1.9 4.4 4.4v25.8zm15.3 0c0 2.3-1.9 4.4-4.4 4.4h-1c-2.3 0-4.4-1.9-4.4-4.4v-25.8c0-2.3 1.9-4.4 4.4-4.4h1c2.3 0 4.4 1.9 4.4 4.4v25.8zm15.3 0c0 2.3-1.9 4.4-4.4 4.4h-1c-2.3 0-4.4-1.9-4.4-4.4v-25.8c0-2.3 1.9-4.4 4.4-4.4h1c2.3 0 4.4 1.9 4.4 4.4v25.8zm15.3 0c0 2.3-1.9 4.4-4.4 4.4h-1c-2.3 0-4.4-1.9-4.4-4.4v-25.8c0-2.3 1.9-4.4 4.4-4.4h1c2.3 0 4.4 1.9 4.4 4.4v25.8zm15.3 0c0 2.3-1.9 4.4-4.4 4.4h-1c-2.3 0-4.4-1.9-4.4-4.4v-25.8c0-2.3 1.9-4.4 4.4-4.4h1c2.3 0 4.4 1.9 4.4 4.4v25.8zm15.3 0c0 2.3-1.9 4.4-4.4 4.4h-1c-2.3 0-4.4-1.9-4.4-4.4v-25.8c0-2.3 1.9-4.4 4.4-4.4h1c2.3 0 4.4 1.9 4.4 4.4v25.8zm15.3 0c0 2.3-1.9 4.4-4.4 4.4h-1c-2.3 0-4.4-1.9-4.4-4.4v-25.8c0-2.3 1.9-4.4 4.4-4.4h1c2.3 0 4.4 1.9 4.4 4.4v25.8zm15.3 0c0 2.3-1.9 4.4-4.4 4.4h-1c-2.3 0-4.4-1.9-4.4-4.4v-25.8c0-2.3 1.9-4.4 4.4-4.4h1c2.3 0 4.4 1.9 4.4 4.4v25.8zm17.2 0c0 2.3-1.9 4.4-4.4 4.4h-1c-2.3 0-4.4-1.9-4.4-4.4v-25.8c0-2.3 1.9-4.4 4.4-4.4h1c2.3 0 4.4 1.9 4.4 4.4v25.8zm15.3 0c0 2.3-1.9 4.4-4.4 4.4h-1c-2.3 0-4.4-1.9-4.4-4.4v-25.8c0-2.3 1.9-4.4 4.4-4.4h1c2.3 0 4.4 1.9 4.4 4.4v25.8zm15.4 0c0 2.3-1.9 4.4-4.4 4.4h-1c-2.3 0-4.4-1.9-4.4-4.4v-25.8c0-2.3 1.9-4.4 4.4-4.4h1c2.3 0 4.4 1.9 4.4 4.4v25.8zm15.3 0c0 2.3-1.9 4.4-4.4 4.4h-1c-2.3 0-4.4-1.9-4.4-4.4v-25.8c0-2.3 1.9-4.4 4.4-4.4h1c2.3 0 4.4 1.9 4.4 4.4v25.8zm-933.9 178c0 2.3-1.9 4.4-4.4 4.4h-1c-2.3 0-4.4-1.9-4.4-4.4v-25.8c0-2.3 1.9-4.4 4.4-4.4h1c2.3 0 4.4 1.9 4.4 4.4v25.8zm15.3 0c0 2.3-1.9 4.4-4.4 4.4h-1c-2.3 0-4.4-1.9-4.4-4.4v-25.8c0-2.3 1.9-4.4 4.4-4.4h1c2.3 0 4.4 1.9 4.4 4.4v25.8zm15.3 0c0 2.3-1.9 4.4-4.4 4.4h-1c-2.3 0-4.4-1.9-4.4-4.4v-25.8c0-2.3 1.9-4.4 4.4-4.4h1c2.3 0 4.4 1.9 4.4 4.4v25.8zm15.3 0c0 2.3-1.9 4.4-4.4 4.4h-1c-2.3 0-4.4-1.9-4.4-4.4v-25.8c0-2.3 1.9-4.4 4.4-4.4h1c2.3 0 4.4 1.9 4.4 4.4v25.8zm17.3 0c0 2.3-1.9 4.4-4.4 4.4h-1c-2.3 0-4.4-1.9-4.4-4.4v-25.8c0-2.3 1.9-4.4 4.4-4.4h1c2.3 0 4.4 1.9 4.4 4.4v25.8zm15.3 0c0 2.3-1.9 4.4-4.4 4.4h-1c-2.3 0-4.4-1.9-4.4-4.4v-25.8c0-2.3 1.9-4.4 4.4-4.4h1c2.3 0 4.4 1.9 4.4 4.4v25.8zm15.3 0c0 2.3-1.9 4.4-4.4 4.4h-1c-2.3 0-4.4-1.9-4.4-4.4v-25.8c0-2.3 1.9-4.4 4.4-4.4h1c2.3 0 4.4 1.9 4.4 4.4v25.8zm15.3 0c0 2.3-1.9 4.4-4.4 4.4h-1c-2.3 0-4.4-1.9-4.4-4.4v-25.8c0-2.3 1.9-4.4 4.4-4.4h1c2.3 0 4.4 1.9 4.4 4.4v25.8zm15.3 0c0 2.3-1.9 4.4-4.4 4.4h-1c-2.3 0-4.4-1.9-4.4-4.4v-25.8c0-2.3 1.9-4.4 4.4-4.4h1c2.3 0 4.4 1.9 4.4 4.4v25.8zm15.3 0c0 2.3-1.9 4.4-4.4 4.4h-1c-2.3 0-4.4-1.9-4.4-4.4v-25.8c0-2.3 1.9-4.4 4.4-4.4h1c2.3 0 4.4 1.9 4.4 4.4v25.8zm15.3 0c0 2.3-1.9 4.4-4.4 4.4h-1c-2.3 0-4.4-1.9-4.4-4.4v-25.8c0-2.3 1.9-4.4 4.4-4.4h1c2.3 0 4.4 1.9 4.4 4.4v25.8zm15.3 0c0 2.3-1.9 4.4-4.4 4.4h-1c-2.3 0-4.4-1.9-4.4-4.4v-25.8c0-2.3 1.9-4.4 4.4-4.4h1c2.3 0 4.4 1.9 4.4 4.4v25.8zm17.2 0c0 2.3-1.9 4.4-4.4 4.4h-1c-2.3 0-4.4-1.9-4.4-4.4v-25.8c0-2.3 1.9-4.4 4.4-4.4h1c2.3 0 4.4 1.9 4.4 4.4v25.8zm15.3 0c0 2.3-1.9 4.4-4.4 4.4h-1c-2.3 0-4.4-1.9-4.4-4.4v-25.8c0-2.3 1.9-4.4 4.4-4.4h1c2.3 0 4.4 1.9 4.4 4.4v25.8zm15.4 0c0 2.3-1.9 4.4-4.4 4.4h-1c-2.3 0-4.4-1.9-4.4-4.4v-25.8c0-2.3 1.9-4.4 4.4-4.4h1c2.3 0 4.4 1.9 4.4 4.4v25.8zm15.3 0c0 2.3-1.9 4.4-4.4 4.4h-1c-2.3 0-4.4-1.9-4.4-4.4v-25.8c0-2.3 1.9-4.4 4.4-4.4h1c2.3 0 4.4 1.9 4.4 4.4v25.8zm15.3 0c0 2.3-1.9 4.4-4.4 4.4h-1c-2.3 0-4.4-1.9-4.4-4.4v-25.8c0-2.3 1.9-4.4 4.4-4.4h1c2.3 0 4.4 1.9 4.4 4.4v25.8zm15.3 0c0 2.3-1.9 4.4-4.4 4.4h-1c-2.3 0-4.4-1.9-4.4-4.4v-25.8c0-2.3 1.9-4.4 4.4-4.4h1c2.3 0 4.4 1.9 4.4 4.4v25.8zm15.3 0c0 2.3-1.9 4.4-4.4 4.4h-1c-2.3 0-4.4-1.9-4.4-4.4v-25.8c0-2.3 1.9-4.4 4.4-4.4h1c2.3 0 4.4 1.9 4.4 4.4v25.8zm17.2 0c0 2.3-1.9 4.4-4.4 4.4h-1c-2.3 0-4.4-1.9-4.4-4.4v-25.8c0-2.3 1.9-4.4 4.4-4.4h1c2.3 0 4.4 1.9 4.4 4.4v25.8zm15.3 0c0 2.3-1.9 4.4-4.4 4.4h-1c-2.3 0-4.4-1.9-4.4-4.4v-25.8c0-2.3 1.9-4.4 4.4-4.4h1c2.3 0 4.4 1.9 4.4 4.4v25.8zm15.3 0c0 2.3-1.9 4.4-4.4 4.4h-1c-2.3 0-4.4-1.9-4.4-4.4v-25.8c0-2.3 1.9-4.4 4.4-4.4h1c2.3 0 4.4 1.9 4.4 4.4v25.8zm15.3 0c0 2.3-1.9 4.4-4.4 4.4h-1c-2.3 0-4.4-1.9-4.4-4.4v-25.8c0-2.3 1.9-4.4 4.4-4.4h1c2.3 0 4.4 1.9 4.4 4.4v25.8zm15.4 0c0 2.3-1.9 4.4-4.4 4.4h-1c-2.3 0-4.4-1.9-4.4-4.4v-25.8c0-2.3 1.9-4.4 4.4-4.4h1c2.3 0 4.4 1.9 4.4 4.4v25.8zm15.3 0c0 2.3-1.9 4.4-4.4 4.4h-1c-2.3 0-4.4-1.9-4.4-4.4v-25.8c0-2.3 1.9-4.4 4.4-4.4h1c2.3 0 4.4 1.9 4.4 4.4v25.8zm15.3 0c0 2.3-1.9 4.4-4.2 4.4h-1c-2.3 0-4.2-1.9-4.2-4.4v-25.8c0-2.3 1.9-4.4 4.2-4.4h1c2.3 0 4.2 1.9 4.2 4.4v25.8zm15.3 0c0 2.3-1.9 4.4-4.4 4.4h-1c-2.3 0-4.4-1.9-4.4-4.4v-25.8c0-2.3 1.9-4.4 4.4-4.4h1c2.3 0 4.4 1.9 4.4 4.4v25.8zm17.2 0c0 2.3-1.9 4.4-4.4 4.4h-1c-2.3 0-4.4-1.9-4.4-4.4v-25.8c0-2.3 1.9-4.4 4.4-4.4h1c2.3 0 4.4 1.9 4.4 4.4v25.8zm15.3 0c0 2.3-1.9 4.4-4.4 4.4h-1c-2.3 0-4.4-1.9-4.4-4.4v-25.8c0-2.3 1.9-4.4 4.4-4.4h1c2.3 0 4.4 1.9 4.4 4.4v25.8zm15.3 0c0 2.3-1.9 4.4-4.4 4.4h-1c-2.3 0-4.4-1.9-4.4-4.4v-25.8c0-2.3 1.9-4.4 4.4-4.4h1c2.3 0 4.4 1.9 4.4 4.4v25.8zm15.3 0c0 2.3-1.9 4.4-4.4 4.4h-1c-2.3 0-4.4-1.9-4.4-4.4v-25.8c0-2.3 1.9-4.4 4.4-4.4h1c2.3 0 4.4 1.9 4.4 4.4v25.8zm15.3 0c0 2.3-1.9 4.4-4.4 4.4h-1c-2.3 0-4.4-1.9-4.4-4.4v-25.8c0-2.3 1.9-4.4 4.4-4.4h1c2.3 0 4.4 1.9 4.4 4.4v25.8zm15.4 0c0 2.3-1.9 4.4-4.4 4.4h-1c-2.3 0-4.4-1.9-4.4-4.4v-25.8c0-2.3 1.9-4.4 4.4-4.4h1c2.3 0 4.4 1.9 4.4 4.4v25.8zm15.3 0c0 2.3-1.9 4.4-4.4 4.4h-1c-2.3 0-4.4-1.9-4.4-4.4v-25.8c0-2.3 1.9-4.4 4.4-4.4h1c2.3 0 4.4 1.9 4.4 4.4v25.8zm17.2 0c0 2.3-1.9 4.4-4.4 4.4h-1c-2.3 0-4.4-1.9-4.4-4.4v-25.8c0-2.3 1.9-4.4 4.4-4.4h1c2.3 0 4.4 1.9 4.4 4.4v25.8zm15.3 0c0 2.3-1.9 4.4-4.4 4.4h-1c-2.3 0-4.4-1.9-4.4-4.4v-25.8c0-2.3 1.9-4.4 4.4-4.4h1c2.3 0 4.4 1.9 4.4 4.4v25.8zm15.3 0c0 2.3-1.9 4.4-4.4 4.4h-1c-2.3 0-4.4-1.9-4.4-4.4v-25.8c0-2.3 1.9-4.4 4.4-4.4h1c2.3 0 4.4 1.9 4.4 4.4v25.8zm15.3 0c0 2.3-1.9 4.4-4.4 4.4h-1c-2.3 0-4.4-1.9-4.4-4.4v-25.8c0-2.3 1.9-4.4 4.4-4.4h1c2.3 0 4.4 1.9 4.4 4.4v25.8zm15.3 0c0 2.3-1.9 4.4-4.4 4.4h-1c-2.3 0-4.4-1.9-4.4-4.4v-25.8c0-2.3 1.9-4.4 4.4-4.4h1c2.3 0 4.4 1.9 4.4 4.4v25.8zm15.3 0c0 2.3-1.9 4.4-4.4 4.4h-1c-2.3 0-4.4-1.9-4.4-4.4v-25.8c0-2.3 1.9-4.4 4.4-4.4h1c2.3 0 4.4 1.9 4.4 4.4v25.8zm15.3 0c0 2.3-1.9 4.4-4.4 4.4h-1c-2.3 0-4.4-1.9-4.4-4.4v-25.8c0-2.3 1.9-4.4 4.4-4.4h1c2.3 0 4.4 1.9 4.4 4.4v25.8zm15.3 0c0 2.3-1.9 4.4-4.4 4.4h-1c-2.3 0-4.4-1.9-4.4-4.4v-25.8c0-2.3 1.9-4.4 4.4-4.4h1c2.3 0 4.4 1.9 4.4 4.4v25.8zm17.3 0c0 2.3-1.9 4.4-4.4 4.4h-1c-2.3 0-4.4-1.9-4.4-4.4v-25.8c0-2.3 1.9-4.4 4.4-4.4h1c2.3 0 4.4 1.9 4.4 4.4v25.8zm15.3 0c0 2.3-1.9 4.4-4.4 4.4h-1c-2.3 0-4.4-1.9-4.4-4.4v-25.8c0-2.3 1.9-4.4 4.4-4.4h1c2.3 0 4.4 1.9 4.4 4.4v25.8zm15.3 0c0 2.3-1.9 4.4-4.4 4.4h-1c-2.3 0-4.4-1.9-4.4-4.4v-25.8c0-2.3 1.9-4.4 4.4-4.4h1c2.3 0 4.4 1.9 4.4 4.4v25.8zm15.3 0c0 2.3-1.9 4.4-4.4 4.4h-1c-2.3 0-4.4-1.9-4.4-4.4v-25.8c0-2.3 1.9-4.4 4.4-4.4h1c2.3 0 4.4 1.9 4.4 4.4v25.8zm15.3 0c0 2.3-1.9 4.4-4.4 4.4h-1c-2.3 0-4.4-1.9-4.4-4.4v-25.8c0-2.3 1.9-4.4 4.4-4.4h1c2.3 0 4.4 1.9 4.4 4.4v25.8zm15.3 0c0 2.3-1.9 4.4-4.4 4.4h-1c-2.3 0-4.4-1.9-4.4-4.4v-25.8c0-2.3 1.9-4.4 4.4-4.4h1c2.3 0 4.4 1.9 4.4 4.4v25.8zm15.3 0c0 2.3-1.9 4.4-4.4 4.4h-1c-2.3 0-4.4-1.9-4.4-4.4v-25.8c0-2.3 1.9-4.4 4.4-4.4h1c2.3 0 4.4 1.9 4.4 4.4v25.8zm17.3 0c0 2.3-1.9 4.4-4.4 4.4h-1c-2.3 0-4.4-1.9-4.4-4.4v-25.8c0-2.3 1.9-4.4 4.4-4.4h1c2.3 0 4.4 1.9 4.4 4.4v25.8zm15.3 0c0 2.3-1.9 4.4-4.4 4.4h-1c-2.3 0-4.4-1.9-4.4-4.4v-25.8c0-2.3 1.9-4.4 4.4-4.4h1c2.3 0 4.4 1.9 4.4 4.4v25.8zm15.3 0c0 2.3-1.9 4.4-4.4 4.4h-1c-2.3 0-4.4-1.9-4.4-4.4v-25.8c0-2.3 1.9-4.4 4.4-4.4h1c2.3 0 4.4 1.9 4.4 4.4v25.8zm15.3 0c0 2.3-1.9 4.4-4.4 4.4h-1c-2.3 0-4.4-1.9-4.4-4.4v-25.8c0-2.3 1.9-4.4 4.4-4.4h1c2.3 0 4.4 1.9 4.4 4.4v25.8zm15.3 0c0 2.3-1.9 4.4-4.4 4.4h-1c-2.3 0-4.4-1.9-4.4-4.4v-25.8c0-2.3 1.9-4.4 4.4-4.4h1c2.3 0 4.4 1.9 4.4 4.4v25.8zm15.3 0c0 2.3-1.9 4.4-4.4 4.4h-1c-2.3 0-4.4-1.9-4.4-4.4v-25.8c0-2.3 1.9-4.4 4.4-4.4h1c2.3 0 4.4 1.9 4.4 4.4v25.8zm15.3 0c0 2.3-1.9 4.4-4.4 4.4h-1c-2.3 0-4.4-1.9-4.4-4.4v-25.8c0-2.3 1.9-4.4 4.4-4.4h1c2.3 0 4.4 1.9 4.4 4.4v25.8zm15.3 0c0 2.3-1.9 4.4-4.4 4.4h-1c-2.3 0-4.4-1.9-4.4-4.4v-25.8c0-2.3 1.9-4.4 4.4-4.4h1c2.3 0 4.4 1.9 4.4 4.4v25.8zm17.2 0c0 2.3-1.9 4.4-4.4 4.4h-1c-2.3 0-4.4-1.9-4.4-4.4v-25.8c0-2.3 1.9-4.4 4.4-4.4h1c2.3 0 4.4 1.9 4.4 4.4v25.8zm15.3 0c0 2.3-1.9 4.4-4.4 4.4h-1c-2.3 0-4.4-1.9-4.4-4.4v-25.8c0-2.3 1.9-4.4 4.4-4.4h1c2.3 0 4.4 1.9 4.4 4.4v25.8zm15.4 0c0 2.3-1.9 4.4-4.4 4.4h-1c-2.3 0-4.4-1.9-4.4-4.4v-25.8c0-2.3 1.9-4.4 4.4-4.4h1c2.3 0 4.4 1.9 4.4 4.4v25.8zm15.3 0c0 2.3-1.9 4.4-4.4 4.4h-1c-2.3 0-4.4-1.9-4.4-4.4v-25.8c0-2.3 1.9-4.4 4.4-4.4h1c2.3 0 4.4 1.9 4.4 4.4v25.8z"/><path d="M33.2 330.9v14.9c0 2.5-.8 4.4-2.3 5.9-1.5 1.5-3.6 2.1-6.3 2.1s-4.8-.8-6.3-2.1-2.3-3.3-2.5-5.7v-15.1h4.8V346c0 1.5.4 2.5 1.1 3.3.8.8 1.7 1 2.9 1 2.7 0 4-1.3 4-4.2V331h4.6v-.1zm18.9 14.5c0 2.7-.6 4.8-1.7 6.3s-2.9 2.3-4.8 2.3c-1.7 0-3.1-.6-4.2-1.7v8h-4.6v-23.5H41l.2 1.7c1.1-1.3 2.5-1.9 4.2-1.9 2.1 0 3.6.8 4.8 2.3 1.1 1.5 1.7 3.6 1.7 6.3v.2h.2zm-4.6-.4c0-1.5-.2-2.9-.8-3.6-.6-.8-1.3-1.3-2.5-1.3-1.3 0-2.5.6-2.9 1.7v6.9c.6 1.1 1.5 1.7 2.9 1.7 2.2 0 3.3-1.7 3.3-5.4zm12.8-12.4v4.2h2.9v3.3h-2.9v8.4c0 .6.2 1.1.4 1.3s.8.4 1.3.4 1 0 1.3-.2v3.4c-1 .2-1.7.4-2.7.4-3.3 0-4.8-1.5-4.8-4.8v-9.2h-2.5v-3.1h2.5v-4.2h4.5zm5.4-.2c0-.8.2-1.1.8-1.7.4-.4 1.1-.6 1.9-.6.8 0 1.3.2 1.9.6.4.4.8 1 .8 1.7s-.2 1.3-.8 1.7c-.4.4-1.1.6-1.9.6-.8 0-1.3-.2-1.9-.6-.6-.5-.8-1.1-.8-1.7zm4.8 21.2h-4.6v-16.8h4.6v16.8zm7.8-16.8l.2 1.9c1.1-1.5 2.9-2.3 4.8-2.3 2.1 0 3.6 1 4.4 2.5 1.1-1.7 2.9-2.5 5.2-2.5 1.9 0 3.3.6 4 1.5 1 1.1 1.3 2.7 1.3 4.8v10.9h-4.4v-10.9c0-1-.2-1.7-.6-2.1-.4-.4-1-.6-1.9-.6-1.3 0-2.3.6-2.9 1.9v11.7h-4.6v-10.7c0-1-.2-1.7-.6-2.1s-1-.6-1.9-.6c-1.3 0-2.3.6-2.9 1.5v12.1h-4.6v-17h4.5zm31.4 17.2c-2.5 0-4.6-.8-6.1-2.3-1.5-1.5-2.3-3.6-2.3-6.1v-.4c0-1.7.4-3.3 1-4.6.6-1.3 1.5-2.3 2.9-3.1 1.1-.8 2.5-1.1 4.2-1.1 2.3 0 4.2.8 5.5 2.1 1.3 1.5 1.9 3.4 1.9 6.1v1.9h-10.7c.2 1.1.6 1.9 1.3 2.7.8.6 1.7 1 2.9 1 1.7 0 3.1-.6 4-1.9l2.3 2.5c-.8 1-1.5 1.7-2.7 2.3-1.5.5-2.9.9-4.2.9zm-.6-13.9c-1 0-1.5.4-2.1 1-.6.6-1 1.5-1.1 2.7h6.3v-.4c0-1-.4-1.7-.8-2.3-.5-.7-1.3-1-2.3-1zm26.8 5.3h-3.8v8.4h-4.8V331h8.6c2.7 0 4.8.6 6.3 1.7s2.1 2.9 2.1 5.2c0 1.5-.4 2.9-1 3.8-.8 1-1.7 1.9-3.1 2.5l5 9.4v.2h-5l-4.3-8.4zm-3.6-3.8h3.8c1.1 0 2.1-.4 2.7-1s1-1.3 1-2.5c0-1.1-.4-1.9-1-2.5s-1.5-1-2.9-1h-3.8l.2 7zM147 345c0-1.7.4-3.3 1-4.4.6-1.3 1.5-2.3 2.9-3.1 1.1-.8 2.7-1.1 4.2-1.1 2.3 0 4.2.8 5.5 2.1 1.5 1.3 2.3 3.3 2.5 5.7v1.1c0 2.7-.8 4.6-2.1 6.3-1.3 1.7-3.4 2.3-5.7 2.3-2.5 0-4.4-.8-5.9-2.3-1.5-1.5-2.1-3.6-2.1-6.3l-.3-.3zm4.4.4c0 1.5.4 2.9 1 3.6s1.5 1.3 2.7 1.3 1.9-.4 2.5-1.3c.6-.8 1-2.1 1-4 0-1.5-.4-2.9-1-3.6-.6-1-1.5-1.3-2.7-1.3-1.1 0-1.9.4-2.5 1.3-.6.8-1 2.1-1 4zm29.7 0c0 2.7-.6 4.8-1.7 6.3s-2.9 2.3-4.8 2.3-3.3-.8-4.4-2.1l-.2 1.7h-4v-24.1h4.4v8.6c1-1.1 2.5-1.9 4.2-1.9 2.1 0 3.6.8 4.8 2.3 1.1 1.5 1.7 3.6 1.7 6.3v.6zm-4.6-.4c0-1.7-.2-3.1-.8-3.8s-1.3-1.1-2.5-1.1c-1.5 0-2.5.6-3.1 1.7v6.7c.6 1.1 1.5 1.7 3.1 1.7 1.5 0 2.5-.8 2.9-2.1.4-.6.4-1.7.4-3.1zm6.7 0c0-1.7.4-3.3 1-4.4.6-1.3 1.5-2.3 2.9-3.1 1.1-.8 2.7-1.1 4.2-1.1 2.3 0 4.2.8 5.5 2.1 1.3 1.3 2.3 3.3 2.5 5.7v1.1c0 2.7-.8 4.6-2.1 6.3-1.3 1.7-3.4 2.3-5.7 2.3s-4.4-.8-5.9-2.3c-1.5-1.5-2.1-3.6-2.1-6.3l-.3-.3zm4.4.4c0 1.5.4 2.9 1 3.6.6.8 1.5 1.3 2.7 1.3 1.1 0 1.9-.4 2.5-1.3.6-.8 1-2.1 1-4 0-1.5-.4-2.9-1-3.6-.6-1-1.5-1.3-2.7-1.3-1.1 0-1.9.4-2.5 1.3-.6 1-1 2.1-1 4zm19.7-12.8v4.2h2.9v3.3h-2.9v8.4c0 .6.2 1.1.4 1.3s.8.4 1.3.4c.6 0 1 0 1.3-.2v3.4c-1 .2-1.7.4-2.7.4-3.3 0-4.8-1.5-4.8-4.8v-9.2h-2.5v-3.1h2.5v-4.2h4.5zm31.6 14.5l3.1-16.3h4.6l-5 22.8h-4.8l-3.6-15.3-3.6 15.3h-4.8l-5-22.8h4.6l3.1 16.3 3.8-16.3h4l3.6 16.3zm17.2 6.9c-2.5 0-4.6-.8-6.1-2.3-1.5-1.5-2.3-3.6-2.3-6.1v-.4c0-1.7.4-3.3 1-4.6.6-1.3 1.5-2.3 2.9-3.1 1.1-.8 2.5-1.1 4.2-1.1 2.3 0 4.2.8 5.5 2.1 1.3 1.5 1.9 3.4 1.9 6.1v1.9h-10.7c.2 1.1.6 1.9 1.3 2.7.8.6 1.7 1 2.9 1 1.7 0 3.1-.6 4-1.9l2.3 2.5c-.8 1-1.5 1.7-2.7 2.3-1.5.5-2.9.9-4.2.9zm-.6-13.9c-1 0-1.5.4-2.1 1-.6.6-1 1.5-1.1 2.7h6.3v-.4c0-1-.4-1.7-.8-2.3-.5-.7-1.3-1-2.3-1zm25.5 5.3c0 2.7-.6 4.8-1.7 6.3s-2.9 2.3-4.8 2.3-3.3-.8-4.4-2.1l-.2 1.7h-4v-24.1h4.6v8.6c1-1.1 2.5-1.9 4.2-1.9 2.1 0 3.6.8 4.8 2.3 1.1 1.5 1.7 3.6 1.7 6.3l-.2.6zm-4.6-.4c0-1.7-.2-3.1-.8-3.8s-1.3-1.1-2.5-1.1c-1.5 0-2.5.6-3.1 1.7v6.7c.6 1.1 1.5 1.7 3.1 1.7s2.5-.8 2.9-2.1c.2-.6.4-1.7.4-3.1zm16.4 4.1c0-.6-.2-1-.8-1.3-.6-.4-1.3-.6-2.7-.8-4-.8-6.1-2.5-6.1-5.2 0-1.5.6-2.7 1.9-3.8 1.3-1.1 2.9-1.5 5-1.5s3.8.6 5.2 1.5c1.3 1 1.9 2.3 1.9 4h-4.6c0-.6-.2-1.1-.6-1.5s-1.1-.6-1.9-.6-1.3.2-1.7.6c-.4.4-.6.8-.6 1.3s.2 1 .8 1.1c.4.4 1.3.6 2.5.8 1.1.2 2.1.4 2.9.8 2.3 1 3.6 2.5 3.6 4.6 0 1.5-.6 2.9-1.9 3.8-1.3 1-3.1 1.3-5.2 1.3-1.3 0-2.7-.2-3.8-.8-1.1-.6-1.9-1.1-2.7-2.1-.6-1-1-1.9-1-2.9h4.2c0 .8.4 1.3 1 1.9.6.6 1.3.6 2.3.6 1 0 1.5-.2 1.9-.6s.4-.7.4-1.2zm7.3-16.7c0-.8.2-1.1.8-1.7.4-.4 1.1-.6 1.9-.6.8 0 1.3.2 1.9.6.4.4.8 1 .8 1.7s-.2 1.3-.8 1.7c-.4.4-1.1.6-1.9.6-.8 0-1.3-.2-1.9-.6-.6-.5-.8-1.1-.8-1.7zm4.8 21.2h-4.6v-16.8h4.6v16.8zm9.2-21v4.2h2.9v3.3h-2.9v8.4c0 .6.2 1.1.4 1.3s.8.4 1.3.4c.6 0 1 0 1.3-.2v3.4c-1 .2-1.7.4-2.7.4-3.3 0-4.8-1.5-4.8-4.8v-9.2h-2.5v-3.1h2.5v-4.2h4.5zm13.2 21.4c-2.5 0-4.6-.8-6.1-2.3-1.5-1.5-2.3-3.6-2.3-6.1v-.4c0-1.7.4-3.3 1-4.6s1.5-2.3 2.9-3.1c1.1-.8 2.5-1.1 4.2-1.1 2.3 0 4.2.8 5.5 2.1 1.3 1.5 1.9 3.4 1.9 6.1v1.9h-10.9c.2 1.1.6 1.9 1.3 2.7.8.6 1.7 1 2.9 1 1.7 0 3.1-.6 4-1.9l2.3 2.5c-.8 1-1.5 1.7-2.7 2.3-1.3.5-2.7.9-4 .9zm-.6-13.9c-1 0-1.5.4-2.1 1s-1 1.5-1.1 2.7h6.3v-.4c0-1-.4-1.7-.8-2.3-.6-.7-1.3-1-2.3-1z" fill="#738199"/><path d="M1035.2 346c0 1.5-.2 3.1-.8 4.2-.6 1.1-1.3 2.1-2.5 2.9-1.1.8-2.3 1-3.6 1s-2.5-.4-3.6-1-1.9-1.5-2.5-2.9-1-2.7-1-4.2v-.8c0-1.5.4-3.1 1-4.2s1.3-2.1 2.5-2.9c1.1-.8 2.3-1 3.6-1s2.5.4 3.6 1 1.9 1.5 2.5 2.9c.6 1.3 1 2.7 1 4.2v.8h-.2zm-3.5-.8c0-1.7-.4-3.1-1-3.8s-1.5-1.3-2.7-1.3-1.9.4-2.7 1.3-1 2.1-1 3.8v.8c0 1.7.4 2.9 1 3.8s1.5 1.3 2.7 1.3 1.9-.4 2.7-1.3 1-2.1 1-3.8v-.8zm16.5 2.5c0 1.9-.4 3.4-1.3 4.4-1 1-1.9 1.7-3.4 1.7-1.1 0-2.3-.4-3.1-1.3v5.7h-3.1v-16.8h3.1l.2 1.1c.8-1 1.7-1.3 3.1-1.3 1.5 0 2.7.6 3.4 1.7.7 1.2 1.1 2.7 1.1 4.8zm-3.3-.2c0-1.1-.2-1.9-.6-2.7s-1-1-1.7-1c-1 0-1.7.4-2.1 1.1v5c.4.8 1.1 1.1 2.1 1.1 1.5.3 2.3-1 2.3-3.5zm10.9 6.3c-1.7 0-3.3-.6-4.4-1.7-1.1-1.1-1.7-2.5-1.7-4.4v-.4c0-1.1.2-2.3.8-3.3.6-1 1.1-1.7 1.9-2.3s1.9-.8 2.9-.8c1.7 0 2.9.6 3.8 1.5 1 1 1.3 2.5 1.3 4.4v1.3h-7.7c.2.8.4 1.3 1 1.9.6.6 1.1.8 1.9.8 1.3 0 2.3-.4 2.9-1.3l1.5 1.7c-.6.8-1.1 1.1-1.9 1.5-.7.6-1.3 1.1-2.3 1.1zm-.4-9.9c-.6 0-1.1.2-1.5.6s-.6 1.1-.8 1.9h4.6v-.2c0-.8-.2-1.3-.6-1.7s-.9-.6-1.7-.6zm14 .7h-1.1c-1.1 0-2.1.4-2.5 1.3v7.8h-3.3v-12.1h3.1v1.5c.6-1.1 1.5-1.7 2.7-1.7.4 0 .8 0 1 .2l.1 3zm8.2 9c-.2-.4-.2-.6-.4-1.1-.8 1-1.7 1.3-3.1 1.3-1.1 0-2.1-.4-2.9-1-.8-.6-1.1-1.5-1.1-2.7 0-1.3.4-2.3 1.3-2.9 1-.6 2.3-1 4.2-1h1.5v-.8c0-.6-.2-1-.4-1.3-.2-.4-.8-.6-1.3-.6s-1 .2-1.3.4-.4.6-.4 1.1h-3.3c0-.8.2-1.3.6-1.9.4-.6 1-1.1 1.9-1.3s1.7-.6 2.7-.6c1.5 0 2.7.4 3.6 1.1s1.3 1.7 1.3 3.3v5.2c0 1.1.2 2.1.6 2.7v.2h-3.6v-.1zm-2.6-2.3c.6 0 1-.2 1.3-.4s.8-.6 1-.8V348h-1.1c-1.5 0-2.5.6-2.7 1.7v.2c0 .4.2.8.4 1s.7.4 1.1.4zm11.8-12.8v3.1h2.1v2.3h-2.1v6.1c0 .4 0 .8.2 1s.6.4 1 .4h1v2.5c-.6.2-1.3.4-1.9.4-2.3 0-3.4-1.1-3.4-3.4v-6.5h-1.7V342h1.7v-3.1h3.3v-.4zm3.9-.2c0-.6.2-1 .6-1.1s.8-.4 1.3-.4 1 .2 1.3.4.6.8.6 1.1c0 .6-.2 1-.6 1.1s-.8.4-1.3.4-1-.2-1.3-.4-.6-.5-.6-1.1zm3.4 15.3h-3.3v-12.1h3.3v12.1zm2.3-6.1c0-1.1.2-2.3.8-3.3.6-1 1.1-1.7 1.9-2.1.8-.4 1.9-.8 3.1-.8 1.7 0 3.1.6 4 1.5 1 1 1.5 2.3 1.7 4v.8c0 1.9-.6 3.4-1.5 4.4-1 1-2.5 1.7-4.2 1.7s-3.1-.6-4.2-1.7c-1.2-1-1.6-2.4-1.6-4.5zm3.2.2c0 1.1.2 2.1.6 2.7s1.1 1 1.9 1 1.3-.4 1.9-1c.4-.6.6-1.5.6-2.9 0-1.1-.2-1.9-.6-2.7-.4-.6-1.1-1-1.9-1s-1.3.4-1.9 1c-.4.6-.6 1.6-.6 2.9zm13.2-6.1l.2 1.3c1-1.1 2.1-1.5 3.4-1.5 1.3 0 2.3.4 2.9 1.1s1 1.9 1 3.4v7.8h-3.3V346c0-.8-.2-1.1-.4-1.5-.4-.4-.8-.4-1.5-.4-1 0-1.5.4-2.1 1.1v8.6h-3.3v-12.1h3.1v-.1zm16.9 12c-.2-.4-.2-.6-.4-1.1-.8 1-1.7 1.3-3.1 1.3-1.1 0-2.1-.4-2.9-1-.8-.6-1.1-1.5-1.1-2.7 0-1.3.4-2.3 1.3-2.9 1-.6 2.3-1 4.2-1h1.5v-.8c0-.6-.2-1-.4-1.3s-.8-.6-1.3-.6c-.6 0-1 .2-1.3.4s-.4.6-.4 1.1h-3.3c0-.8.2-1.3.6-1.9.4-.6 1-1.1 1.9-1.3s1.7-.6 2.7-.6c1.5 0 2.7.4 3.6 1.1 1 .8 1.3 1.7 1.3 3.3v5.2c0 1.1.2 2.1.6 2.7v.2h-3.6v-.1zm-2.7-2.3c.6 0 1-.2 1.3-.4s.8-.6 1-.8V348h-1.1c-1.5 0-2.5.6-2.7 1.7v.2c0 .4.2.8.4 1s.7.4 1.1.4zm11.5 2.3h-3.3v-17.2h3.3v17.2z" fill="#36D56C"/><path d="M22.1 508.5L28 525l5.7-16.5h6.1v22.8H35V525l.4-10.7-6.1 17h-3.1l-6.1-17 .4 10.7v6.3h-4.6v-22.8h6.2zm21 14.1c0-1.7.4-3.3 1-4.4.6-1.3 1.5-2.3 2.9-3.1 1.1-.8 2.7-1.1 4.2-1.1 2.3 0 4.2.8 5.5 2.1 1.5 1.3 2.3 3.3 2.5 5.7v1.1c0 2.7-.8 4.6-2.1 6.3-1.3 1.7-3.4 2.3-5.7 2.3-2.5 0-4.4-.8-5.9-2.3-1.5-1.5-2.1-3.6-2.1-6.3l-.3-.3zm4.4.2c0 1.5.4 2.9 1 3.6s1.5 1.3 2.7 1.3c1.1 0 1.9-.4 2.5-1.3.6-.8 1-2.1 1-4 0-1.5-.4-2.9-1-3.6-.6-1-1.5-1.3-2.7-1.3-1.1 0-1.9.4-2.5 1.3s-1 2.3-1 4zm18.6-8.6l.2 1.9c1.1-1.5 2.9-2.3 4.8-2.3 1.7 0 3.1.6 4 1.5 1 1 1.3 2.7 1.3 4.8V531h-4.6v-10.9c0-1-.2-1.7-.6-2.1s-1.1-.6-2.1-.6c-1.3 0-2.3.6-2.9 1.7v12.1h-4.6v-16.8l4.5-.2zm13.8-4.4c0-.8.2-1.1.8-1.7.4-.4 1.1-.6 1.9-.6.8 0 1.3.2 1.9.6.4.4.8 1 .8 1.7 0 .8-.2 1.3-.8 1.7-.4.4-1.1.6-1.9.6-.8 0-1.3-.2-1.9-.6s-.8-.9-.8-1.7zm4.7 21.4H80v-16.8h4.6v16.8zm9.2-21v4.2h2.9v3.3h-2.9v8.4c0 .6.2 1.1.4 1.3s.8.4 1.3.4c.6 0 1 0 1.3-.2v3.4c-1 .2-1.7.4-2.7.4-3.3 0-4.8-1.5-4.8-4.8v-9.2h-2.5v-3.3h2.5V510h4.4v.2zm4.2 12.4c0-1.7.4-3.3 1-4.4.6-1.3 1.5-2.3 2.9-3.1 1.1-.8 2.7-1.1 4.2-1.1 2.3 0 4.2.8 5.5 2.1 1.5 1.3 2.3 3.3 2.5 5.7v1.1c0 2.7-.8 4.6-2.1 6.3-1.3 1.7-3.4 2.3-5.7 2.3-2.5 0-4.4-.8-5.9-2.3-1.5-1.5-2.1-3.6-2.1-6.3l-.3-.3zm4.4.2c0 1.5.4 2.9 1 3.6s1.5 1.3 2.7 1.3c1.1 0 1.9-.4 2.5-1.3.6-.8 1-2.1 1-4 0-1.5-.4-2.9-1-3.6-.6-1-1.5-1.3-2.7-1.3-1.1 0-1.9.4-2.5 1.3s-1 2.3-1 4zm24-4.4c-.6 0-1.1-.2-1.7-.2-1.7 0-2.9.6-3.4 1.7V531h-4.4v-16.8h4.2l.2 2.1c1-1.5 2.1-2.3 3.8-2.3.6 0 1 0 1.3.2v4.2zm2.1-8.6c0-.8.2-1.1.8-1.7.4-.4 1.1-.6 1.9-.6.8 0 1.3.2 1.9.6.4.4.8 1 .8 1.7 0 .8-.2 1.3-.8 1.7-.4.4-1.1.6-1.9.6-.8 0-1.3-.2-1.9-.6s-.8-.9-.8-1.7zm4.7 21.4h-4.6v-16.8h4.6v16.8zm7.9-17l.2 1.9c1.1-1.5 2.9-2.3 4.8-2.3 1.7 0 3.1.6 4 1.5 1 1 1.3 2.7 1.3 4.8V531h-4.6v-10.9c0-1-.2-1.7-.6-2.1s-1.1-.6-2.1-.6c-1.3 0-2.3.6-2.9 1.7v12.1h-4.6v-16.8l4.5-.2zm13.2 8.4c0-2.7.6-4.8 1.9-6.3 1.1-1.5 2.9-2.3 5-2.3 1.9 0 3.3.6 4.4 1.9l.2-1.5h4v16.5c0 1.5-.4 2.7-1 3.8-.8 1.1-1.5 1.9-2.9 2.5-1.3.6-2.7 1-4.2 1-1.1 0-2.5-.2-3.6-.8-1.1-.6-2.1-1.1-2.7-1.9l1.9-2.7c1.1 1.3 2.5 1.9 4 1.9 1.1 0 2.1-.4 2.9-1 .6-.6 1-1.5 1-2.7v-1c-1 1.1-2.5 1.7-4.2 1.7-2.1 0-3.6-.8-5-2.3-1.1-1.8-1.7-3.9-1.7-6.8zm4.6.4c0 1.5.4 2.7 1 3.6s1.5 1.3 2.5 1.3c1.3 0 2.3-.6 2.9-1.5v-7.1c-.6-1-1.5-1.5-2.9-1.5-1.1 0-1.9.4-2.5 1.3-.6 1-1 2-1 3.9zm35.6 3.4h-8.2l-1.5 4.8h-5l8.4-22.8h4.4l8.6 22.8h-5l-1.7-4.8zm-7.1-3.8h5.7l-2.9-8.6-2.8 8.6zm20.5.6v8h-4.8v-22.8h8.8c1.7 0 3.3.4 4.6 1 1.3.6 2.3 1.5 3.1 2.7s1 2.5 1 4c0 2.3-.8 4-2.3 5.4-1.5 1.3-3.6 1.9-6.3 1.9l-4.1-.2zm0-3.8h4.2c1.1 0 2.1-.4 2.9-1 .6-.6 1-1.3 1-2.5 0-1.1-.4-2.1-1-2.7s-1.5-1-2.7-1.1h-4.2v7.3h-.2zm20.8 11.8H224v-22.8h4.8v22.8z" fill="#738199"/><path d="M1035.2 523.4c0 1.5-.2 3.1-.8 4.2-.6 1.1-1.3 2.1-2.5 2.9s-2.3 1-3.6 1-2.5-.4-3.6-1-1.9-1.5-2.5-2.9-1-2.7-1-4.2v-.8c0-1.5.4-3.1 1-4.2s1.3-2.1 2.5-2.9c1.1-.8 2.3-1 3.6-1s2.5.4 3.6 1 1.9 1.5 2.5 2.9c.6 1.3 1 2.7 1 4.2v.8h-.2zm-3.5-.8c0-1.7-.4-3.1-1-3.8s-1.5-1.3-2.7-1.3-1.9.4-2.7 1.3-1 2.1-1 3.8v.8c0 1.7.4 2.9 1 3.8s1.5 1.3 2.7 1.3 1.9-.4 2.7-1.3 1-2.1 1-3.8v-.8zm16.5 2.7c0 1.9-.4 3.4-1.3 4.4-1 1-1.9 1.7-3.4 1.7-1.1 0-2.3-.4-3.1-1.3v5.7h-3.1V519h3.1l.2 1.1c.8-1 1.7-1.3 3.1-1.3 1.5 0 2.7.6 3.4 1.7.7 1.2 1.1 2.7 1.1 4.8zm-3.3-.4c0-1.1-.2-1.9-.6-2.7s-1-1-1.7-1c-1 0-1.7.4-2.1 1.1v5c.4.8 1.1 1.1 2.1 1.1 1.5.3 2.3-.8 2.3-3.5zm10.9 6.5c-1.7 0-3.3-.6-4.4-1.7-1.1-1.1-1.7-2.5-1.7-4.4v-.4c0-1.1.2-2.3.8-3.3s1.1-1.7 1.9-2.3 1.9-.8 2.9-.8c1.7 0 2.9.6 3.8 1.5 1 1 1.3 2.5 1.3 4.4v1.3h-7.7c.2.8.4 1.3 1 1.9.6.6 1.1.8 1.9.8 1.3 0 2.3-.4 2.9-1.3l1.5 1.7c-.6.8-1.1 1.1-1.9 1.5-.7.5-1.3 1.1-2.3 1.1zm-.4-9.9c-.6 0-1.1.2-1.5.6s-.6 1.1-.8 1.9h4.6v-.2c0-.8-.2-1.3-.6-1.7s-.9-.6-1.7-.6zm14 .5h-1.1c-1.1 0-2.1.4-2.5 1.3v7.8h-3.3V519h3.1v1.5c.6-1.1 1.5-1.7 2.7-1.7.4 0 .8 0 1 .2l.1 3zm8.2 9.2c-.2-.4-.2-.6-.4-1.1-.8 1-1.7 1.3-3.1 1.3-1.1 0-2.1-.4-2.9-1-.8-.6-1.1-1.5-1.1-2.7 0-1.3.4-2.3 1.3-2.9 1-.6 2.3-1 4.2-1h1.5v-.8c0-.6-.2-1-.4-1.3-.2-.4-.8-.6-1.3-.6s-1 .2-1.3.4-.4.6-.4 1.1h-3.3c0-.8.2-1.3.6-1.9.4-.6 1-1.1 1.9-1.3s1.7-.6 2.7-.6c1.5 0 2.7.4 3.6 1.1 1 .8 1.3 1.7 1.3 3.3v5.2c0 1.1.2 2.1.6 2.7v.2l-3.5-.1zm-2.6-2.3c.6 0 1-.2 1.3-.4s.8-.6 1-.8v-2.1h-1.1c-1.5 0-2.5.6-2.7 1.7v.2c0 .4.2.8.4 1s.7.4 1.1.4zm11.8-12.8v3.1h2.1v2.3h-2.1v6.1c0 .4 0 .8.2 1s.6.4 1 .4h1v2.5c-.6.2-1.3.4-1.9.4-2.3 0-3.4-1.1-3.4-3.4V522h-1.7v-2.3h1.7v-3.1h3.3v-.5zm3.9-.2c0-.6.2-1 .6-1.1s.8-.4 1.3-.4 1 .2 1.3.4.6.8.6 1.1c0 .6-.2 1-.6 1.1s-.8.4-1.3.4-1-.2-1.3-.4-.6-.5-.6-1.1zm3.4 15.3h-3.3v-12.1h3.3v12.1zm2.3-6.3c0-1.1.2-2.3.8-3.3s1.1-1.7 1.9-2.1c.8-.4 1.9-.8 3.1-.8 1.7 0 3.1.6 4 1.5 1 1 1.5 2.3 1.7 4v.8c0 1.9-.6 3.4-1.5 4.4-1 1-2.5 1.7-4.2 1.7s-3.1-.6-4.2-1.7c-1.2-1-1.6-2.4-1.6-4.5zm3.2.4c0 1.1.2 2.1.6 2.7s1.1 1 1.9 1 1.3-.4 1.9-1c.4-.6.6-1.5.6-2.9 0-1.1-.2-1.9-.6-2.7-.4-.6-1.1-1-1.9-1s-1.3.4-1.9 1c-.4.6-.6 1.6-.6 2.9zm13.2-6.3l.2 1.3c1-1.1 2.1-1.5 3.4-1.5 1.3 0 2.3.4 2.9 1.1.6.8 1 1.9 1 3.4v7.8h-3.3v-7.8c0-.8-.2-1.1-.4-1.5-.4-.4-.8-.4-1.5-.4-1 0-1.5.4-2.1 1.1v8.6h-3.3V519h3.1zm16.9 12.2c-.2-.4-.2-.6-.4-1.1-.8 1-1.7 1.3-3.1 1.3-1.1 0-2.1-.4-2.9-1-.8-.6-1.1-1.5-1.1-2.7 0-1.3.4-2.3 1.3-2.9 1-.6 2.3-1 4.2-1h1.5v-.8c0-.6-.2-1-.4-1.3s-.8-.6-1.3-.6c-.6 0-1 .2-1.3.4s-.4.6-.4 1.1h-3.3c0-.8.2-1.3.6-1.9.4-.6 1-1.1 1.9-1.3s1.7-.6 2.7-.6c1.5 0 2.7.4 3.6 1.1 1 .8 1.3 1.7 1.3 3.3v5.2c0 1.1.2 2.1.6 2.7v.2l-3.5-.1zm-2.7-2.3c.6 0 1-.2 1.3-.4s.8-.6 1-.8v-2.1h-1.1c-1.5 0-2.5.6-2.7 1.7v.2c0 .4.2.8.4 1s.7.4 1.1.4zm11.5 2.3h-3.3V514h3.3v17.2zm-1077.2 54h-4.6v-17.4l-5.4 1.7v-3.6l9.4-3.4h.6v22.7zm22.8-9.4c0 3.1-.6 5.5-1.9 7.3-1.3 1.7-3.3 2.5-5.7 2.5s-4.4-.8-5.7-2.5c-1.3-1.7-1.9-4-2.1-7.1v-4.2c0-3.3.6-5.5 1.9-7.3 1.3-1.7 3.3-2.5 5.7-2.5s4.4.8 5.7 2.5c1.3 1.7 1.9 4 2.1 7.1v4.2zm-4.6-4.6c0-1.9-.2-3.3-.8-4.2-.6-1-1.3-1.3-2.5-1.3-1.1 0-1.9.4-2.3 1.1-.4.8-.8 2.1-.8 3.8v5.5c0 1.9.2 3.3.8 4.2.6 1 1.3 1.3 2.5 1.3 1.1 0 1.9-.4 2.5-1.3.6-1 .8-2.1.8-4l-.2-5.1zm22.9 4.6c0 3.1-.6 5.5-1.9 7.3-1.3 1.7-3.3 2.5-5.7 2.5s-4.4-.8-5.7-2.5c-1.3-1.7-1.9-4-2.1-7.1v-4.2c0-3.3.6-5.5 1.9-7.3 1.3-1.7 3.3-2.5 5.7-2.5s4.4.8 5.7 2.5c1.3 1.7 1.9 4 2.1 7.1v4.2zm-4.6-4.6c0-1.9-.2-3.3-.8-4.2-.6-1-1.3-1.3-2.5-1.3-1.1 0-1.9.4-2.3 1.1-.4.8-.8 2.1-.8 3.8v5.5c0 1.9.2 3.3.8 4.2.6 1 1.3 1.3 2.5 1.3 1.1 0 1.9-.4 2.5-1.3.6-1 .8-2.1.8-4v-5.2h-.2v.1zm8.1 11.9c0-.8.2-1.3.8-1.7s1.1-.8 1.9-.8 1.3.2 1.9.8c.6.4.8 1 .8 1.7s-.2 1.3-.8 1.7c-.6.4-1.1.6-1.9.6s-1.3-.2-1.9-.6c-.6-.6-.8-1.1-.8-1.7zm24.3-7.3c0 3.1-.6 5.5-1.9 7.3-1.3 1.7-3.3 2.5-5.7 2.5s-4.4-.8-5.7-2.5c-1.3-1.7-1.9-4-2.1-7.1v-4.2c0-3.3.6-5.5 1.9-7.3 1.3-1.7 3.3-2.5 5.7-2.5s4.4.8 5.7 2.5c1.3 1.7 1.9 4 2.1 7.1v4.2zm-4.6-4.6c0-1.9-.2-3.3-.8-4.2-.6-1-1.3-1.3-2.5-1.3-1.1 0-1.9.4-2.3 1.1-.6.8-.8 2.1-.8 3.8v5.5c0 1.9.2 3.3.8 4.2.6 1 1.3 1.3 2.5 1.3s1.9-.4 2.5-1.3c.6-1 .8-2.1.8-4v-5.2h-.2v.1zm23 4.6c0 3.1-.6 5.5-1.9 7.3-1.3 1.7-3.3 2.5-5.7 2.5s-4.4-.8-5.7-2.5c-1.3-1.7-1.9-4-2.1-7.1v-4.2c0-3.3.6-5.5 1.9-7.3 1.3-1.7 3.3-2.5 5.7-2.5s4.4.8 5.7 2.5c1.3 1.7 1.9 4 2.1 7.1v4.2zm-4.6-4.6c0-1.9-.2-3.3-.8-4.2-.6-1-1.3-1.3-2.5-1.3-1.1 0-1.9.4-2.3 1.1-.6.8-.8 2.1-.8 3.8v5.5c0 1.9.2 3.3.8 4.2.6 1 1.3 1.3 2.5 1.3 1.1 0 1.9-.4 2.5-1.3.6-1 .8-2.1.8-4l-.2-5.1zm7.4-4.4c0-1.3.4-2.5 1.3-3.4 1-1 2.1-1.3 3.6-1.3s2.7.4 3.6 1.3c1 1 1.3 2.1 1.3 3.4v1.1c0 1.3-.4 2.5-1.3 3.4-1 1-2.1 1.3-3.6 1.3s-2.7-.4-3.6-1.3c-1-1-1.3-2.1-1.3-3.4v-1.1zm3.1 1.2c0 .6.2 1.1.6 1.5s.8.6 1.3.6c.6 0 1-.2 1.3-.6s.6-1 .6-1.5v-1.1c0-.6-.2-1.1-.6-1.5s-.8-.6-1.3-.6c-.6 0-1 .2-1.3.6s-.6 1-.6 1.5v1.1zm2.9 15.5l-2.3-1.1 11.1-17.8 2.3 1.1-11.1 17.8zm4.9-3.9c0-1.3.4-2.5 1.3-3.4 1-1 2.1-1.3 3.6-1.3s2.7.4 3.6 1.3c1 .8 1.3 2.1 1.3 3.4v1.1c0 1.3-.4 2.5-1.3 3.4-1 .8-2.1 1.3-3.6 1.3s-2.7-.4-3.6-1.3c-1-1-1.3-2.1-1.3-3.4v-1.1zm3.1 1.4c0 .6.2 1.1.6 1.5s.8.6 1.3.6c1.3 0 1.9-.8 1.9-2.1v-1.1c0-.6-.2-1.1-.6-1.5s-.8-.6-1.3-.6c-.6 0-1.1.2-1.3.6-.4.4-.6 1-.6 1.5v1.1z" fill="#36D56C"/><path d="M262 31.6h-2.3v-27h2.3v27zm20.1-14.4c-2.5-.8-4.4-1.7-5.5-2.7-1.1-1.1-1.7-2.5-1.7-4 0-1.7.8-3.3 2.1-4.4 1.5-1.1 3.3-1.7 5.5-1.7 1.5 0 2.9.4 4.2 1 1.1.6 2.1 1.5 2.9 2.5.8 1.1 1 2.3 1 3.4h-3.1c0-1.3-.4-2.5-1.3-3.3-1-.8-2.1-1.1-3.6-1.1s-2.7.4-3.4 1c-.8.6-1.3 1.5-1.3 2.7 0 1 .4 1.7 1.1 2.3.8.6 2.1 1.1 4 1.7 1.9.6 3.4 1.1 4.4 1.7 1.1.6 1.9 1.3 2.3 2.3.6.8.8 1.9.8 3.1 0 1.9-.8 3.3-2.1 4.4-1.5 1.1-3.4 1.7-5.7 1.7-1.5 0-3.1-.4-4.4-1s-2.5-1.3-3.1-2.5c-.8-1-1.1-2.3-1.1-3.6h3.1c0 1.3.6 2.5 1.5 3.3 1 .8 2.3 1.1 4 1.1 1.5 0 2.9-.4 3.6-1 .8-.6 1.3-1.5 1.3-2.7s-.4-1.9-1.1-2.7c-.9-.3-2.3-.9-4.4-1.5zm18.8 10.5c-2.3 0-4.2-.8-5.5-2.3-1.5-1.5-2.1-3.4-2.1-6.1v-.4c0-1.7.4-3.3 1-4.6.6-1.3 1.5-2.3 2.7-3.1 1.1-.8 2.5-1.1 3.8-1.1 2.3 0 3.8.8 5.2 2.1 1.1 1.5 1.9 3.4 1.9 6.3v1.1h-11.5c0 1.7.6 3.1 1.5 4 1 1 2.1 1.5 3.6 1.5 1 0 1.9-.2 2.7-.6.8-.4 1.3-1 1.9-1.7l1.7 1.3c-1.9 2.5-4 3.6-6.9 3.6zm-.2-15.1c-1.1 0-2.1.4-2.9 1.3-.8 1-1.3 2.1-1.5 3.6h8.4v-.4c0-1.5-.6-2.7-1.1-3.4-.8-.7-1.8-1.1-2.9-1.1zm18.4.4c-.4 0-1-.2-1.3-.2-1.9 0-3.3.8-3.8 2.5v12.1h-3V10.5h2.9v1.9c1-1.5 2.3-2.3 4-2.3.6 0 1 0 1.3.2l-.1 2.7zm8.6 10.5l4.2-13h2.9l-6.1 16.8h-2.3l-6.1-16.8h2.9l4.5 13zm9.9-17.6c0-.4.2-1 .4-1.1.4-.4.8-.6 1.3-.6.6 0 1 .2 1.3.6s.4.8.4 1.1c0 .4-.2.8-.4 1.1-.4.4-.8.4-1.3.4-.6 0-1-.2-1.3-.4-.2-.1-.4-.5-.4-1.1zm3.1 21.5h-2.9V10.5h2.9v16.9zm11.5-1.9c1 0 1.9-.4 2.7-1 .8-.6 1.1-1.3 1.3-2.3h2.7c0 1-.4 1.9-1 2.7-.6.8-1.5 1.5-2.5 2.1-1 .6-2.1.8-3.3.8-2.3 0-4.2-.8-5.5-2.3-1.3-1.5-2.1-3.6-2.1-6.3v-.6c0-1.7.4-3.1 1-4.4.6-1.3 1.5-2.3 2.7-3.1 1.1-.8 2.5-1.1 4-1.1 1.9 0 3.4.6 4.8 1.7s1.9 2.7 2.1 4.4h-2.7c0-1.1-.6-1.9-1.1-2.7-.8-.8-1.7-1.1-2.7-1.1-1.5 0-2.7.6-3.4 1.5-.8 1.1-1.1 2.7-1.1 4.6v.6c0 1.9.4 3.4 1.1 4.6.3 1.3 1.4 1.9 3 1.9zm17 2.2c-2.3 0-4.2-.8-5.5-2.3-1.5-1.5-2.1-3.4-2.1-6.1v-.4c0-1.7.4-3.3 1-4.6.6-1.3 1.5-2.3 2.7-3.1 1.1-.8 2.5-1.1 3.8-1.1 2.3 0 3.8.8 5.2 2.1 1.1 1.5 1.9 3.4 1.9 6.3v1.1h-11.5c0 1.7.6 3.1 1.5 4 1 1 2.1 1.5 3.6 1.5 1 0 1.9-.2 2.7-.6s1.3-1 1.9-1.7l1.7 1.3c-1.9 2.5-4 3.6-6.9 3.6zm-.4-15.1c-1.1 0-2.1.4-2.9 1.3-.8.8-1.3 2.1-1.5 3.6h8.4v-.4c0-1.5-.6-2.7-1.1-3.4-.8-.7-1.7-1.1-2.9-1.1zM396.9 23c0-.8-.4-1.3-1-1.9-.6-.4-1.5-.8-3.1-1.1-1.5-.4-2.7-.8-3.4-1.1-1-.4-1.5-1-1.9-1.5s-.6-1.3-.6-2.1c0-1.3.6-2.5 1.7-3.4 1.1-1 2.7-1.5 4.6-1.5s3.4.6 4.6 1.5c1.1 1 1.7 2.3 1.7 3.8h-2.9c0-.8-.4-1.5-1-2.1s-1.5-1-2.5-1c-1.1 0-1.9.2-2.5.8-.6.4-1 1.1-1 1.7 0 .8.2 1.1.8 1.5s1.5.8 3.1 1 2.7.8 3.4 1.1c.8.4 1.5 1 1.9 1.5.4.6.6 1.3.6 2.3 0 1.5-.6 2.7-1.7 3.6-1.1 1-2.9 1.3-4.8 1.3-1.3 0-2.5-.2-3.6-.8-1-.6-1.9-1.1-2.5-2.1-.6-1-1-1.7-1-2.9h2.9c0 1 .4 1.7 1.1 2.3.8.6 1.7.8 2.9.8 1.1 0 1.9-.2 2.7-.6 1.2.2 1.5-.4 1.5-1.1zm10.6-16.7v4h3.3v2.3h-3.3v10.5c0 .8.2 1.1.4 1.5s.8.6 1.5.6c.4 0 .8 0 1.3-.2v2.3c-.8.2-1.5.4-2.3.4-1.3 0-2.3-.4-2.9-1.1s-1-1.9-1-3.3V12.6h-3.1v-2.1h3.1V6.3h3zm17 21.1c-.2-.4-.4-1-.4-1.7-1.3 1.3-2.9 2.1-4.8 2.1-1.7 0-3.1-.4-4-1.3-1.1-1-1.5-2.1-1.5-3.6 0-1.7.8-3.1 2.1-4 1.3-1 3.3-1.5 5.7-1.5h2.9v-1.3c0-1-.4-1.7-1-2.5s-1.5-1-2.7-1c-1 0-1.9.2-2.7.8-.8.6-1 1.1-1 1.9h-2.9c0-.8.4-1.7 1-2.5s1.3-1.3 2.5-1.9c1-.4 2.1-.8 3.4-.8 1.9 0 3.4.6 4.6 1.5 1.1 1 1.7 2.3 1.7 4v7.8c0 1.5.2 2.9.6 3.6v.2l-3.5.2zm-4.8-2.1c1 0 1.7-.2 2.5-.8.8-.4 1.3-1.1 1.7-1.9v-3.4h-2.3c-3.6 0-5.4 1-5.4 3.1 0 1 .4 1.5 1 2.1.8.5 1.6.9 2.5.9zm15.7-19v4h3.3v2.3h-3.3v10.5c0 .8.2 1.1.4 1.5s.8.6 1.5.6c.4 0 .8 0 1.3-.2v2.3c-.8.2-1.5.4-2.3.4-1.3 0-2.3-.4-2.9-1.1s-1-1.9-1-3.3V12.6h-3.1v-2.1h3.1V6.3h3zm17 19.5c-1.1 1.3-2.9 1.9-5 1.9-1.7 0-3.3-.6-4.2-1.5s-1.3-2.7-1.3-4.6V10.5h2.9v10.9c0 2.5 1 3.8 3.1 3.8 2.3 0 3.6-.8 4.4-2.5V10.5h2.9v16.8h-2.7v-1.5h-.1zm17.1-2.8c0-.8-.4-1.3-1-1.9-.6-.4-1.5-.8-3.1-1.1-1.5-.4-2.7-.8-3.4-1.1s-1.5-1-1.9-1.5-.6-1.3-.6-2.1c0-1.3.6-2.5 1.7-3.4s2.7-1.5 4.6-1.5 3.4.6 4.6 1.5 1.7 2.3 1.7 3.8h-2.9c0-.8-.4-1.5-1-2.1s-1.5-1-2.5-1c-1.1 0-1.9.2-2.5.8-.6.4-1 1.1-1 1.7 0 .8.2 1.1.8 1.5.6.4 1.5.8 3.1 1 1.5.4 2.7.8 3.4 1.1s1.5 1 1.9 1.5c.4.6.6 1.3.6 2.3 0 1.5-.6 2.7-1.7 3.6s-2.9 1.3-4.8 1.3c-1.3 0-2.5-.2-3.6-.8-1-.6-1.9-1.1-2.5-2.1-.6-1-1-1.7-1-2.9h2.9c0 1 .4 1.7 1.1 2.3.8.6 1.7.8 2.9.8s1.9-.2 2.7-.6c1.1.2 1.5-.4 1.5-1.1z" fill="#738199"/><path fill="#F2F3DA" d="M13.8 95.5h1136.7v150.2H13.8z"/><path fill="#738199" d="M442.5 156.7c0 2.1-1.7 3.8-3.8 3.8H153.5c-2.1 0-3.8-1.7-3.8-3.8v-11.5c0-2.1 1.7-3.8 3.8-3.8h285.1c2.1 0 3.8 1.7 3.8 3.8v11.5z"/><path fill="#B2BAB9" d="M888.4 196.9c0 2.1-1.7 3.8-3.8 3.8h-731c-2.1 0-3.8-1.7-3.8-3.8v-11.5c0-2.1 1.7-3.8 3.8-3.8h731c2.1 0 3.8 1.7 3.8 3.8v11.5z"/><path fill="#738199" d="M87.9 187c1.7 0 3.1.6 4 1.5 1 1 1.5 2.3 1.5 3.6 0 1.5-.6 2.7-1.5 3.6-1 1-2.3 1.5-4 1.5-1.5 0-2.9-.6-4-1.5-1-1-1.5-2.1-1.5-3.6s.6-2.7 1.5-3.6c1.1-1.2 2.5-1.5 4-1.5zm4-5.4h-8l-1.1-34.3h10.3l-1.2 34.3z"/><path fill="#36D56C" d="M25.1 563.8c6.5 0 11.7 5.2 11.7 11.7 0 6.5-5.2 11.7-11.7 11.7s-11.7-5.2-11.7-11.7c.1-6.6 5.2-11.7 11.7-11.7zm35.8-167.5c-1.1 1.1-2.5 1.7-4.2 1.7-2.1 0-3.6-.8-4.8-2.1-1.1-1.3-1.7-3.3-1.7-5.5 0-1.5.4-2.9 1-4s1.5-2.3 2.7-2.9c1.1-.8 2.5-1 4-1s2.9.4 4 1.1c1.1.8 2.1 1.9 2.7 3.3s1 3.1 1 4.8v1.7c0 3.8-1 6.7-2.9 9-1.9 2.1-4.6 3.3-8 3.4h-1.1V402h1c3.8-.3 5.9-2.2 6.3-5.7zm-3.1-1.7c.8 0 1.3-.2 1.9-.6.6-.4 1-.8 1.1-1.3v-1.9c0-1.5-.4-2.7-1-3.6-.6-.8-1.3-1.3-2.3-1.3s-1.7.4-2.3 1.3c-.6.8-1 1.9-1 3.1 0 1.1.2 2.3.8 3.1.9.8 1.9 1.2 2.8 1.2zm21.5 1.7c-1.1 1.1-2.5 1.7-4.2 1.7-2.1 0-3.6-.8-4.8-2.1-1.1-1.3-1.7-3.3-1.7-5.5 0-1.5.4-2.9 1-4s1.5-2.3 2.7-2.9c1.1-.8 2.5-1 4-1s2.9.4 4 1.1c1.1.8 2.1 1.9 2.7 3.3s1 3.1 1 4.8v1.7c0 3.8-1 6.7-2.9 9-1.9 2.1-4.6 3.3-8 3.4H72V402h1c3.8-.3 5.9-2.2 6.3-5.7zm-3.1-1.7c.8 0 1.3-.2 1.9-.6.6-.4 1-.8 1.1-1.3v-1.9c0-1.5-.4-2.7-1-3.6-.6-.8-1.3-1.3-2.3-1.3s-1.7.4-2.3 1.3c-.6.8-1 1.9-1 3.1 0 1.1.2 2.3.8 3.1.9.8 1.9 1.2 2.8 1.2zm11.3 8.6c0-.8.2-1.3.8-1.7.6-.4 1.1-.8 1.9-.8s1.3.2 1.9.8c.6.4.8 1 .8 1.7 0 .8-.2 1.3-.8 1.7s-1.1.6-1.9.6-1.3-.2-1.9-.6c-.6-.5-.8-1.1-.8-1.7zm9.6-9l1.3-11.7H111v3.8h-9l-.6 5c1.1-.6 2.3-.8 3.4-.8 2.1 0 3.8.8 5.2 2.1 1.3 1.3 1.9 3.3 1.9 5.7 0 1.5-.4 2.9-1 4s-1.5 2.1-2.7 2.7c-1.1.6-2.5 1-4 1-1.3 0-2.7-.2-3.8-.8-1.1-.6-2.1-1.3-2.9-2.3-.8-1-1-2.1-1.1-3.4h4.4c0 1 .4 1.7 1 2.3s1.3.8 2.3.8 1.7-.4 2.3-1.1.8-1.7.8-3.1c0-1.3-.4-2.3-1-3.1s-1.5-1-2.7-1c-1.1 0-1.9.2-2.7.8l-.4.4-3.3-1.3zm31 2.5h2.5v3.6h-2.5v5h-4.6v-5h-9.4l-.2-2.9 9.6-14.9h4.6v14.2zm-9.6 0h5v-8l-.4.6-4.6 7.4zm14.6-9.8c0-1.3.4-2.5 1.3-3.4 1-1 2.1-1.3 3.6-1.3s2.7.4 3.6 1.3c1 1 1.3 2.1 1.3 3.4v1.1c0 1.3-.4 2.5-1.3 3.4-1 1-2.1 1.3-3.6 1.3s-2.7-.4-3.6-1.3c-1-1-1.3-2.1-1.3-3.4v-1.1zm3 1.2c0 .6.2 1.1.6 1.5.4.4.8.6 1.3.6.6 0 1-.2 1.3-.6.4-.4.6-1 .6-1.5V387c0-.6-.2-1.1-.6-1.5-.4-.4-.8-.6-1.3-.6-.6 0-1 .2-1.3.6-.4.4-.6 1-.6 1.5v1.1zm2.9 15.5l-2.3-1.1 11.1-17.8 2.3 1.1-11.1 17.8zm5-3.8c0-1.3.4-2.5 1.3-3.4 1-1 2.1-1.3 3.6-1.3s2.7.4 3.6 1.3c1 .8 1.3 2.1 1.3 3.4v1.1c0 1.3-.4 2.5-1.3 3.4-1 .8-2.1 1.3-3.6 1.3s-2.7-.4-3.6-1.3c-1-1-1.3-2.1-1.3-3.4v-1.1zm3 1.3c0 .6.2 1.1.6 1.5s.8.6 1.3.6c1.3 0 1.9-.8 1.9-2.1V400c0-.6-.2-1.1-.6-1.5s-.8-.6-1.3-.6c-.6 0-1.1.2-1.3.6-.4.4-.6 1-.6 1.5v1.1zM25.1 383.9c6.5 0 11.7 5.2 11.7 11.7 0 6.5-5.2 11.7-11.7 11.7s-11.7-5.2-11.7-11.7c.1-6.6 5.2-11.7 11.7-11.7z"/><path opacity=".7" fill="#FFF" d="M13.8.4h1136.7v593.2H13.8z"/><path fill="#FFF" d="M906.9 484.9c0 2.5-1.9 4.4-4.4 4.4h-641c-2.5 0-4.4-1.9-4.4-4.4V135.5c0-2.5 1.9-4.4 4.4-4.4h641.1c2.5 0 4.4 1.9 4.4 4.4v349.4z"/><path opacity=".5" fill="none" stroke="#738199" stroke-width="3" stroke-linecap="round" stroke-linejoin="round" stroke-miterlimit="10" d="M825.8 329.3c0 9.2-1.9 16.5-4.4 16.5H339.7c-2.5 0-4.4-7.3-4.4-16.5V157.9c0-9 1.9-16.5 4.4-16.5h481.5c2.5 0 4.4 7.5 4.4 16.5v171.5h.2z"/><path fill="none" stroke="#738199" stroke-width="4" stroke-linecap="round" stroke-linejoin="round" stroke-miterlimit="133.333" d="M525.7 277.3v-66.7c0-6.3 0-9.6 1.3-11.9 1.1-2.1 3.1-3.8 5.5-5 2.7-1.1 6.1-1.1 13.2-1.1h72.5c7.1 0 10.5 0 13.2 1.1 2.3 1.1 4.2 2.9 5.5 5 1.3 2.5 1.3 5.5 1.3 11.9v65.6c0 2.7 0 5-.2 6.7m-112.3-5.6c0 5.5 0 8.6 1.3 10.7 1.1 2.1 3.1 3.8 5.5 5 2.7 1.1 6.1 1.1 13.2 1.1h72.5c7.1 0 10.5 0 13.2-1.1 2.3-1.1 4.2-2.9 5.5-5 .8-1.3 1.1-3.1 1.3-5.4m-112.5-5.3l29.9-31.6h0c2.7-2.9 4-4.2 5.5-4.8 1.3-.4 2.9-.4 4.2 0 1.5.6 2.9 1.9 5.5 4.8l16.6 18.2c2.5 2.7 3.6 4 5.2 4.4 1.3.4 2.7.6 4 .2 1.5-.4 2.9-1.5 5.5-4l3.1-2.9c2.7-2.5 4-3.6 5.7-4.2 1.3-.4 2.9-.2 4.2.2 1.5.6 2.7 1.9 5.2 4.6l18 20.3m0 .3h0m-37.5-56.4c-3.4 0-6.3-2.5-6.3-5.7 0-3.1 2.9-5.7 6.3-5.7s6.3 2.5 6.3 5.7-2.9 5.7-6.3 5.7z" opacity=".5"/><path fill="#36D56C" d="M825.8 413.2c0 2.5-1.9 4.4-4.4 4.4H339.7c-2.5 0-4.4-1.9-4.4-4.4v-46.3c0-2.5 1.9-4.4 4.4-4.4h481.5c2.5 0 4.4 1.9 4.4 4.4v46.3h.2zm324.7-369.6c0 2.1-1.7 3.8-3.8 3.8h-262c-2.1 0-3.8-1.7-3.8-3.8V3.8c0-2.1 1.7-3.8 3.8-3.8h261.8c2.1 0 3.8 1.7 3.8 3.8v39.8h.2z"/><path opacity=".5" fill="#FFF" d="M1095.4 27.9c0 2.1-1.7 3.8-3.8 3.8H945.4c-2.1 0-3.8-1.7-3.8-3.8V16.5c0-2.1 1.7-3.8 3.8-3.8h146.4c2.1 0 3.8 1.7 3.8 3.8V28h-.2z"/><path d="M518.6 381.1v12.5c0 1.4-.3 2.6-.9 3.7-.6 1-1.5 1.8-2.6 2.4-1.1.5-2.5.8-4 .8-2.3 0-4.1-.6-5.5-1.8-1.3-1.2-2-2.9-2-4.9v-12.6h4.6v12.7c.1 2.1 1 3.1 2.9 3.1 1 0 1.7-.3 2.2-.8.5-.5.7-1.4.7-2.6v-12.4h4.6zm15.8 12.1c0 2.2-.5 4-1.5 5.3-1 1.3-2.3 2-4 2-1.3 0-2.4-.5-3.2-1.4v6.6h-4.4V386h4.1l.1 1.3c.8-1 2-1.6 3.3-1.6 1.7 0 3.1.6 4.1 1.9 1 1.3 1.5 3.1 1.5 5.3v.3zm-4.4-.3c0-2.5-.7-3.8-2.2-3.8-1 0-1.7.4-2.1 1.1v5.6c.4.8 1.1 1.2 2.1 1.2 1.4 0 2.1-1.2 2.2-3.6v-.5zm11 7.2h-4.4V380h4.4v20.1zm2.2-7.2c0-1.4.3-2.7.8-3.8.5-1.1 1.3-2 2.4-2.5 1-.6 2.2-.9 3.6-.9 2.1 0 3.8.7 5 2s1.8 3.1 1.8 5.4v.2c0 2.2-.6 4-1.8 5.3-1.2 1.3-2.9 1.9-5 1.9-2 0-3.6-.6-4.9-1.8-1.2-1.2-1.9-2.8-2-4.9l.1-.9zm4.4.3c0 1.3.2 2.3.6 2.9.4.6 1 .9 1.8.9 1.6 0 2.4-1.2 2.4-3.6v-.4c0-2.5-.8-3.8-2.4-3.8-1.5 0-2.3 1.1-2.4 3.3v.7zm19.2 6.9c-.2-.3-.3-.7-.4-1.3-.8 1-1.9 1.5-3.4 1.5-1.3 0-2.5-.4-3.4-1.2s-1.4-1.8-1.4-3c0-1.5.6-2.7 1.7-3.5s2.8-1.2 4.9-1.2h1.4v-.7c0-1.3-.6-2-1.7-2-1 0-1.6.5-1.6 1.6h-4.4c0-1.4.6-2.5 1.7-3.3 1.2-.9 2.6-1.3 4.5-1.3 1.8 0 3.2.4 4.3 1.3s1.6 2.1 1.6 3.6v6.3c0 1.3.2 2.3.6 3v.2h-4.4zm-2.8-2.8c.5 0 1-.1 1.4-.4.4-.2.6-.5.8-.8v-2.3h-1.3c-1.5 0-2.3.7-2.3 2.1 0 .4.1.7.4 1 .3.2.6.4 1 .4zm8.5-4.3c0-2.2.5-4 1.5-5.3 1-1.3 2.3-1.9 4.1-1.9 1.3 0 2.3.5 3.2 1.5V380h4.4v20.1h-4l-.2-1.5c-.9 1.2-2.1 1.8-3.5 1.8-1.7 0-3-.6-4-1.9-1-1.3-1.5-3.2-1.5-5.5zm4.4.2c0 2.5.7 3.8 2.2 3.8 1 0 1.7-.4 2.1-1.2v-5.4c-.4-.8-1.1-1.3-2.1-1.3-1.4 0-2.1 1.1-2.2 3.3v.8zm22.5 6.9H595V380h4.4v20.1zm2.2-7.2c0-1.4.3-2.7.8-3.8.5-1.1 1.3-2 2.4-2.5 1-.6 2.2-.9 3.6-.9 2.1 0 3.8.7 5 2s1.8 3.1 1.8 5.4v.2c0 2.2-.6 4-1.8 5.3-1.2 1.3-2.9 1.9-5 1.9-2 0-3.6-.6-4.9-1.8-1.2-1.2-1.9-2.8-2-4.9l.1-.9zm4.4.3c0 1.3.2 2.3.6 2.9.4.6 1 .9 1.8.9 1.6 0 2.4-1.2 2.4-3.6v-.4c0-2.5-.8-3.8-2.4-3.8-1.5 0-2.3 1.1-2.4 3.3v.7zm10.7-.2c0-1.4.2-2.7.7-3.8.5-1.1 1.1-1.9 2-2.5.9-.6 1.9-.9 3.1-.9 1.5 0 2.6.5 3.5 1.5l.2-1.2h4v13.6c0 1.2-.3 2.3-.9 3.3-.6.9-1.4 1.6-2.5 2.1s-2.4.7-3.8.7c-1 0-2-.2-3-.6s-1.7-.9-2.2-1.5l1.8-2.6c.8 1 1.9 1.5 3.2 1.5 2 0 2.9-1 2.9-3v-.6c-.8.9-1.9 1.4-3.2 1.4-1.7 0-3.1-.7-4.2-2s-1.6-3.1-1.6-5.3v-.1zm4.4.2c0 1.2.2 2.1.7 2.8.4.7 1 1 1.8 1 1 0 1.6-.3 2.1-1v-6c-.4-.6-1.1-1-2.1-1-.8 0-1.4.4-1.8 1.1-.5.8-.7 1.8-.7 3.1zm10.9-.3c0-1.4.3-2.7.8-3.8.5-1.1 1.3-2 2.4-2.5 1-.6 2.2-.9 3.6-.9 2.1 0 3.8.7 5 2s1.8 3.1 1.8 5.4v.2c0 2.2-.6 4-1.8 5.3-1.2 1.3-2.9 1.9-5 1.9-2 0-3.6-.6-4.9-1.8-1.2-1.2-1.9-2.8-2-4.9l.1-.9zm4.4.3c0 1.3.2 2.3.6 2.9.4.6 1 .9 1.8.9 1.6 0 2.4-1.2 2.4-3.6v-.4c0-2.5-.8-3.8-2.4-3.8-1.5 0-2.3 1.1-2.4 3.3v.7z" fill="#FFF"/></svg>